<?xml version="1.0" encoding="UTF-8"?><svg id="a" xmlns="http://www.w3.org/2000/svg" viewBox="0 0 382.93 530.28"><polygon points="110.38 530.28 76.55 460.24 .77 477.78 96.81 277.28 206.42 329.79 110.38 530.28" style="fill:#00abcd;"/><polygon points="273.32 530.28 307.15 460.24 382.93 477.78 286.89 277.28 177.28 329.79 273.32 530.28" style="fill:#00abcd;"/><circle cx="191.85" cy="182.67" r="145.98" style="fill:#c49a6c;"/><path d="m351.6,214.45c2.16-10.85,21.37-20.3,21.37-31.78s-19.21-20.93-21.37-31.79c-2.21-11.18,11.89-27.25,7.62-37.54-2.08-5.03-8.07-7.95-14.43-10.66-6.91-2.95-14.25-5.64-17.51-10.49-6.28-9.38.59-29.65-7.36-37.6-3.31-3.31-8.74-4.06-14.63-4.23-8.28-.27-17.47.55-22.96-3.12-3.13-2.1-5.36-5.9-7.34-10.2-3.92-8.48-6.86-18.87-13.81-21.75-10.29-4.27-26.35,9.83-37.54,7.62-10.86-2.14-20.31-21.36-31.79-21.36s-20.93,19.21-31.79,21.36c-1.22.25-2.49.29-3.81.18-10.79-.82-24.55-11.61-33.73-7.8-10.47,4.35-11.84,25.72-21.15,31.95-9.37,6.28-29.64-.59-37.59,7.35-7.95,7.95-1.08,28.22-7.36,37.6-6.23,9.31-27.6,10.67-31.94,21.14-3.8,9.18,6.98,22.93,7.8,33.73.11,1.33.07,2.6-.18,3.82-2.16,10.86-21.37,20.31-21.37,31.79s19.21,20.93,21.37,31.78c2.21,11.18-11.89,27.26-7.62,37.55,2.88,6.95,13.27,9.9,21.75,13.8,4.29,2,8.1,4.23,10.19,7.35,3.66,5.47,2.85,14.67,3.12,22.96.2,5.9.94,11.33,4.24,14.63,7.94,7.95,28.21,1.08,37.59,7.36,4.85,3.24,7.54,10.59,10.49,17.51,2.71,6.36,5.65,12.34,10.66,14.43,10.29,4.27,26.35-9.83,37.54-7.62,10.86,2.15,20.31,21.37,31.79,21.37s20.93-19.23,31.79-21.37c11.18-2.21,27.25,11.89,37.54,7.62,10.47-4.35,11.84-25.72,21.15-31.94,9.37-6.28,29.64.59,37.59-7.36,7.95-7.95,1.08-28.22,7.36-37.59,6.23-9.31,27.6-10.68,31.94-21.15,4.27-10.29-9.83-26.36-7.62-37.55Zm-159.75,110.52c-20.38,0-39.76-4.3-57.3-12.05-20.37-8.99-38.24-22.62-52.28-39.55-6.69-8.07-12.5-16.88-17.3-26.31-9.85-19.34-15.42-41.23-15.42-64.39,0-26.74,7.41-51.78,20.29-73.17,12.04-20,28.84-36.81,48.84-48.84,21.39-12.88,46.43-20.3,73.17-20.3,23.16,0,45.04,5.56,64.39,15.43,9.42,4.8,18.24,10.62,26.31,17.3,16.92,14.04,30.56,31.92,39.55,52.28,7.75,17.54,12.05,36.92,12.05,57.3,0,78.47-63.83,142.3-142.3,142.3Z" style="fill:#8b5e3c;"/><circle cx="191.85" cy="182.67" r="129.91" style="fill:#8b5e3c;"/><path d="m339.74,188.25c0-40.65-17.14-77.37-44.56-103.33,24.15,25.51,38.98,59.93,38.98,97.74,0,78.47-63.84,142.3-142.3,142.3-37.82,0-72.23-14.83-97.74-38.98,25.96,27.42,62.68,44.56,103.33,44.56,78.47,0,142.3-63.84,142.3-142.3Z" style="fill:#603913;"/><path d="m67.52,189.37c0-71.75,58.16-129.91,129.91-129.91,38.58,0,73.23,16.82,97.02,43.53-23.77-30.56-60.89-50.23-102.61-50.23-71.75,0-129.91,58.16-129.91,129.91,0,33.17,12.44,63.43,32.89,86.38-17.11-22-27.31-49.65-27.31-79.68Z" style="fill:#603913;"/><path d="m269.17,169.8l-46.83-8.34c-1.41-.25-2.61-1.16-3.23-2.45l-20.24-41.98c-1.62-3.36-6.41-3.36-8.03,0l-20.24,41.98c-.62,1.29-1.83,2.2-3.23,2.45l-46.83,8.34c-3.68.66-4.97,5.28-2.16,7.74l35.08,30.74c1.19,1.04,1.74,2.64,1.44,4.2l-8.32,43.03c-.71,3.67,3.13,6.53,6.44,4.8l39.77-20.76c1.29-.67,2.83-.67,4.13,0l39.77,20.76c3.31,1.73,7.15-1.13,6.44-4.8l-8.32-43.03c-.3-1.56.25-3.16,1.44-4.2l35.08-30.74c2.81-2.46,1.53-7.09-2.16-7.74Z" style="fill:#603913;"/><path d="m266.17,164.8l-46.83-8.34c-1.41-.25-2.61-1.16-3.23-2.45l-20.24-41.98c-1.62-3.36-6.41-3.36-8.03,0l-20.24,41.98c-.62,1.29-1.83,2.2-3.23,2.45l-46.83,8.34c-3.68.66-4.97,5.28-2.16,7.74l35.08,30.74c1.19,1.04,1.74,2.64,1.44,4.2l-8.32,43.03c-.71,3.67,3.13,6.53,6.44,4.8l39.77-20.76c1.29-.67,2.83-.67,4.13,0l39.77,20.76c3.31,1.73,7.15-1.13,6.44-4.8l-8.32-43.03c-.3-1.56.25-3.16,1.44-4.2l35.08-30.74c2.81-2.46,1.53-7.09-2.16-7.74Z" style="fill:#c49a6c;"/></svg>